PathFileType	4	(X/Y/Z)	Kaydara	
DataRate	CameraRate	NumFrames	NumMarkers	Units	OrigDataRate	OrigDataStartFrame	OrigNumFrames	
60.00	60.00	4	74	mm	60.00	1926	201	
Frame#	Time	Z_lasi			Z_rasi			Z_rpsi			Z_lpsi			Z_fneck			Z_bneck			Z_fhead			Z_rhead			Z_lhead			Z_rshld			Z_relbtop			Z_relbext			Z_relblow			Z_rwrext			Z_rwrtop			Z_rwrlow			Z_lshld			Z_lelbext			Z_lelblow			Z_lelbtop			Z_lwrext			Z_lwrtop			Z_lwrlow			Z_rtopleg			Z_ltopleg			Z_rkneefr			Z_rkneebk			Z_rkneeis			Z_lkneefr			Z_lknssbk			Z_lkneeis			Z_rankfr			Z_rankis			Z_rankbk			Z_lankfr			Z_lankbk			Z_lankis			A_lasi			A_rasi			A_rpsi			A_lpsi			A_fneck			A_bneck			A_fhead			A_rhead			A_lhead			A_rshld			A_relbtop			A_relbext			A_relblow			A_rwrext			A_rwrtop			A_rwrlow			A_lshld			A_lelbext			A_lelblow			A_lelbtop			A_lwrext			A_lwrtop			A_lwrlow			A_rtopleg			A_ltopleg			A_rkneefr			A_rkneebk			A_rkneeis			A_lkneefr			A_lknssbk			A_lkneeis			A_rankfr			A_rankis			A_rankbk			A_lankfr			A_lankbk			A_lankis			
		X1	Y1	Z1	X2	Y2	Z2	X3	Y3	Z3	X4	Y4	Z4	X5	Y5	Z5	X6	Y6	Z6	X7	Y7	Z7	X8	Y8	Z8	X9	Y9	Z9	X10	Y10	Z10	X11	Y11	Z11	X12	Y12	Z12	X13	Y13	Z13	X14	Y14	Z14	X15	Y15	Z15	X16	Y16	Z16	X17	Y17	Z17	X18	Y18	Z18	X19	Y19	Z19	X20	Y20	Z20	X21	Y21	Z21	X22	Y22	Z22	X23	Y23	Z23	X24	Y24	Z24	X25	Y25	Z25	X26	Y26	Z26	X27	Y27	Z27	X28	Y28	Z28	X29	Y29	Z29	X30	Y30	Z30	X31	Y31	Z31	X32	Y32	Z32	X33	Y33	Z33	X34	Y34	Z34	X35	Y35	Z35	X36	Y36	Z36	X37	Y37	Z37	X38	Y38	Z38	X39	Y39	Z39	X40	Y40	Z40	X41	Y41	Z41	X42	Y42	Z42	X43	Y43	Z43	X44	Y44	Z44	X45	Y45	Z45	X46	Y46	Z46	X47	Y47	Z47	X48	Y48	Z48	X49	Y49	Z49	X50	Y50	Z50	X51	Y51	Z51	X52	Y52	Z52	X53	Y53	Z53	X54	Y54	Z54	X55	Y55	Z55	X56	Y56	Z56	X57	Y57	Z57	X58	Y58	Z58	X59	Y59	Z59	X60	Y60	Z60	X61	Y61	Z61	X62	Y62	Z62	X63	Y63	Z63	X64	Y64	Z64	X65	Y65	Z65	X66	Y66	Z66	X67	Y67	Z67	X68	Y68	Z68	X69	Y69	Z69	X70	Y70	Z70	X71	Y71	Z71	X72	Y72	Z72	X73	Y73	Z73	X74	Y74	Z74	

126	32.083	-239.66503	1059.99886	798.82126	-274.02102	1079.45313	593.28548	-96.73171	1118.62083	525.45364	-48.92754	1094.20807	766.88835	-249.72099	1429.54865	718.12408	-150.11270	1499.84955	747.53448	-343.59119	1634.81277	695.80856	-176.00473	1649.71741	703.78952	-241.94323	1611.76529	830.33531	-189.38065	1449.76929	516.67648	-135.63594	1137.57278	411.42338	-114.60202	1116.97212	465.41664	-204.90154	1144.74510	446.12312	-234.85136	910.71281	399.26468	-269.30634	923.54668	426.18282	-248.50922	915.46967	463.49392	-153.65077	1410.64102	909.63615	-114.14548	1092.14058	896.43715	-178.56712	1108.92578	956.54884	-110.43595	1107.10640	966.17546	-240.01621	851.92825	931.71509	-228.82822	842.99606	976.78749	-182.73695	839.74533	969.19746	-140.38959	930.90721	465.88779	-153.36294	883.15155	833.76587	-264.53152	432.48833	438.41991	-189.44654	470.37338	403.55316	-214.35354	437.96688	522.67307	-189.65361	438.70567	757.88177	-82.38468	465.09857	768.24837	-162.01706	441.11786	669.75311	-193.27755	198.77615	402.94674	-180.26688	189.10925	467.29965	-116.38136	198.64712	409.89948	-133.80073	156.84278	748.18336	-67.02848	162.00371	702.85210	-141.10352	171.84853	675.92545	-965.99686	1031.76331	484.68636	-961.67442	1038.99544	643.93082	-1122.03438	1037.56783	654.74548	-1089.47433	1041.34476	473.22613	-1039.41101	1378.90884	573.72097	-1173.41560	1420.72388	557.50053	-968.77197	1577.98157	592.86076	-1124.26445	1560.99747	664.94164	-1111.52779	1569.39835	502.11678	-1130.90683	1347.13425	745.34576	-1103.65181	1054.30649	776.99089	-1161.44798	1045.10689	747.98439	-1091.93878	1043.63243	720.72487	-1073.72345	808.31627	800.47897	-1030.56908	821.29135	797.88383	-1028.74397	820.23148	758.56186	-1063.37189	1353.84781	392.22637	-1090.34073	1042.70752	371.87496	-1023.26645	1051.04996	398.20953	-1046.54808	1049.51279	348.84911	-1001.67389	825.48225	384.82677	-1000.13260	828.13805	343.98384	-957.03003	834.69330	357.73170	-1078.68393	878.32893	737.05475	-1021.96365	889.62181	402.44129	-1029.56535	451.69785	656.12778	-1139.94522	488.14293	691.92215	-1111.19736	485.91644	575.13138	-1010.66032	463.38310	515.16079	-1092.00317	480.71056	418.17078	-1116.50284	479.31149	542.08679	-1104.19754	167.26267	676.83708	-1131.46797	163.27103	608.54805	-1185.62881	155.60909	673.95576	-1066.10588	166.06182	458.41385	-1127.15469	168.98964	423.03627	-1125.86243	173.12801	512.41322 
127	32.100	-240.22272	1060.12802	795.87212	-274.55885	1079.32541	590.34252	-97.65904	1118.60107	522.88567	-49.68412	1094.70924	764.14238	-250.36280	1429.80728	714.64287	-150.69244	1500.09155	743.88275	-343.86848	1635.05890	691.59409	-176.37447	1649.88724	699.53995	-242.38617	1612.42264	826.31676	-189.87972	1449.59610	513.14636	-135.91639	1137.19208	408.49449	-114.97933	1116.72058	462.62421	-205.20555	1144.36905	443.12817	-235.09813	910.39665	396.31012	-269.55606	923.20671	423.39317	-248.68599	915.26077	460.60497	-154.60122	1411.20697	906.18202	-115.52236	1092.68166	894.64172	-179.61266	1109.77440	953.96889	-111.36590	1107.83363	963.58566	-241.04305	852.66243	929.69559	-230.04980	843.95309	974.84093	-183.93778	840.62225	967.04262	-140.59007	931.11534	463.10547	-153.86356	883.39409	830.96573	-264.28699	432.76268	434.61391	-189.44157	470.83572	399.35478	-213.74828	437.89803	518.66444	-189.75599	438.77735	756.33789	-82.51975	465.27367	766.75301	-162.02497	440.98171	668.27850	-193.41860	199.17614	397.53048	-179.84583	189.28087	461.68510	-116.49324	198.99609	403.84239	-133.86911	156.98954	747.84798	-66.85535	162.11012	702.14203	-141.08938	171.71207	675.47623	-966.01250	1031.82663	484.54815	-961.53488	1038.99414	643.81477	-1122.62306	1037.84546	655.24185	-1089.80682	1041.35437	473.58799	-1039.43611	1378.81393	573.68000	-1173.29300	1420.75226	557.75780	-968.47267	1577.67731	592.60162	-1123.56155	1561.01685	665.12482	-1111.48232	1569.37469	502.31026	-1130.65170	1347.02606	745.49957	-1103.33046	1054.14314	776.92894	-1161.21696	1044.99260	748.11790	-1091.81702	1043.55247	720.78087	-1073.27461	808.21548	800.42831	-1030.25108	821.22704	797.86263	-1028.40324	820.11742	758.48923	-1063.67683	1353.80280	392.28451	-1090.49553	1042.65259	371.87309	-1023.36075	1051.05255	398.06282	-1046.74561	1049.49249	348.82454	-1001.75476	825.49492	384.62013	-1000.21515	828.11890	343.87802	-957.09518	834.70062	357.55703	-1078.68393	878.32893	737.05475	-1021.93047	889.59198	402.34001	-1029.33357	451.69277	656.00822	-1139.77875	488.18203	691.90903	-1111.01662	485.91827	575.09811	-1010.58876	463.40832	515.10170	-1091.95641	480.70553	418.12031	-1116.40678	479.31175	542.03911	-1104.15268	167.24216	676.80122	-1131.42189	163.26229	608.50647	-1185.55923	155.61256	673.94089	-1066.13937	166.02629	458.50826	-1127.14233	168.99912	422.98462	-1125.83656	173.14398	512.38846 
128	32.117	-240.89520	1060.29015	792.79831	-275.04425	1079.20486	587.24468	-98.45968	1118.54332	520.01904	-50.47689	1094.85435	761.21117	-251.24508	1430.01862	710.80116	-151.37365	1500.27985	740.04272	-344.25728	1635.29526	687.17445	-176.64608	1649.96704	695.18356	-242.65390	1613.18497	821.94923	-190.37750	1449.29688	509.35856	-136.26714	1136.82274	405.34046	-115.45659	1116.33057	459.46495	-205.69492	1144.06067	439.68182	-235.56456	910.03998	393.13919	-270.00402	922.85858	420.21667	-249.15031	914.84985	457.50633	-155.29101	1411.80420	902.55905	-116.63452	1093.20313	892.27081	-180.34204	1110.50476	951.05392	-112.27266	1108.61549	960.88547	-242.31329	853.50258	927.54654	-231.33865	844.84291	972.68013	-185.23829	841.38718	965.17258	-140.71650	931.28105	460.12486	-154.83335	883.68286	828.21953	-263.85479	432.92595	430.85857	-189.24719	471.05461	395.22717	-212.54585	437.70729	514.38911	-189.79946	438.84117	754.77524	-82.61779	465.61749	765.17471	-162.10968	440.80349	666.77010	-193.65580	199.37183	392.18227	-179.64670	189.21377	456.22044	-116.63946	199.14145	397.59247	-133.96400	157.09462	747.40059	-66.87113	162.10943	701.69090	-141.16089	171.58329	674.92851	-965.98862	1031.83571	484.42726	-961.35330	1038.99818	643.68668	-1122.35252	1037.75352	655.21393	-1089.96887	1041.35704	473.71643	-1039.42947	1378.75732	573.64155	-1173.19901	1420.78644	558.06984	-968.12469	1577.42401	592.20814	-1122.98233	1561.06964	665.29114	-1111.45889	1569.38812	502.51339	-1130.41824	1346.95679	745.57083	-1103.07274	1054.07188	777.08939	-1160.90172	1044.87404	748.29384	-1091.54068	1043.43712	720.83481	-1072.87094	808.13560	800.40298	-1029.97696	821.15875	797.83073	-1028.06458	820.00648	758.40500	-1063.95363	1353.73932	392.30305	-1090.62660	1042.58812	371.87160	-1023.53157	1051.01364	397.96944	-1046.96617	1049.45290	348.81950	-1001.87012	825.49026	384.38457	-1000.29495	828.11066	343.74657	-957.16026	834.70528	357.36423	-1078.68393	878.32893	737.05475	-1021.94000	889.59702	402.24876	-1029.12949	451.67519	655.86807	-1139.57138	488.20847	691.87965	-1110.89401	485.94440	575.04894	-1010.54085	463.37914	515.03548	-1091.89796	480.72594	418.04710	-1116.35056	479.33205	542.00367	-1104.08936	167.25407	676.76773	-1131.43723	163.22952	608.52337	-1185.49843	155.64313	673.94379	-1066.09642	166.04979	458.43479	-1127.11960	168.99118	422.96822	-1125.83046	173.17659	512.37568 
129	32.133	-241.66103	1060.39268	789.52553	-275.56175	1079.02527	583.93852	-98.94446	1118.51883	516.73222	-51.25405	1095.05997	757.99362	-251.93800	1430.25787	706.85555	-152.19923	1500.46188	735.94948	-344.72748	1635.55328	682.64038	-177.15227	1650.01846	690.53017	-243.50386	1613.85284	817.61650	-191.10245	1448.99063	505.42202	-136.77778	1136.37115	401.87363	-116.10968	1115.98679	456.14761	-206.30772	1143.61588	436.06785	-236.08101	909.62250	389.73839	-270.55445	922.35275	416.80794	-249.74745	914.28024	454.05296	-156.17344	1412.45361	898.69476	-117.14555	1093.61206	888.93997	-181.29341	1111.33827	948.09914	-113.13937	1109.40239	957.94090	-243.46586	854.36951	925.21019	-232.49258	845.81215	970.43823	-186.42200	842.32132	962.69432	-140.89736	931.25717	456.94183	-155.18339	883.94859	825.18219	-263.27633	433.03345	427.24018	-188.90146	471.16604	391.12141	-210.71890	437.15820	510.03090	-189.80377	439.01764	753.15536	-82.92528	465.66570	763.78792	-162.06861	440.64510	665.06592	-194.21179	199.41397	386.80202	-179.55631	188.96370	450.65758	-117.21757	198.82620	391.56311	-134.04763	157.29182	746.76582	-67.58936	161.75163	701.95740	-141.21246	171.46391	674.31686	-965.92628	1031.85577	484.24419	-961.03661	1039.05685	643.48801	-1122.13196	1037.70172	655.25063	-1089.96956	1041.34140	473.70930	-1039.34891	1378.69095	573.56949	-1173.08960	1420.81680	558.33862	-967.84554	1577.29675	591.90521	-1122.52213	1561.05652	665.52994	-1111.48720	1569.41116	502.66216	-1130.15747	1346.86096	745.68390	-1102.82181	1054.02596	777.19635	-1160.60402	1044.78416	748.46550	-1091.17798	1043.34328	720.93430	-1072.56966	808.05595	800.38902	-1029.63066	821.05812	797.77908	-1027.87407	819.99222	758.29674	-1064.20395	1353.69171	392.31567	-1090.76340	1042.53906	371.88629	-1023.66119	1050.98061	397.88315	-1047.15080	1049.42947	348.77491	-1001.98822	825.50652	384.10465	-1000.42488	828.09464	343.62995	-957.25761	834.72740	357.15984	-1078.68393	878.32893	737.05475	-1021.91673	889.59526	402.11834	-1028.99651	451.68262	655.80261	-1139.43436	488.21964	691.85219	-1110.76286	485.96985	574.98878	-1010.52795	463.38070	514.94125	-1091.88774	480.72342	418.00095	-1116.30638	479.34986	541.92913	-1104.01154	167.27129	676.71562	-1131.44234	163.24677	608.48587	-1185.42908	155.67330	673.94402	-1066.10077	166.02480	458.43124	-1127.11548	168.98947	422.93163	-1125.77652	173.17625	512.35157 
